HIERARCHY
ROOT Hips
{
	OFFSET 0.00000 0.00000 0.00000
	CHANNELS 6 Xposition Yposition Zposition Zrotation Yrotation Xrotation 
	JOINT LHipJoint
	{
		OFFSET 0 0 0
		CHANNELS 3 Zrotation Yrotation Xrotation
		JOINT LeftUpLeg
		{
			OFFSET 1.77779 -1.88989 0.48267
			CHANNELS 3 Zrotation Yrotation Xrotation
			JOINT LeftLeg
			{
				OFFSET 2.53442 -6.96327 0.00000
				CHANNELS 3 Zrotation Yrotation Xrotation
				JOINT LeftFoot
				{
					OFFSET 2.71068 -7.44755 0.00000
					CHANNELS 3 Zrotation Yrotation Xrotation
					JOINT LeftToeBase
					{
						OFFSET 0.17992 -0.49431 2.22524
						CHANNELS 3 Zrotation Yrotation Xrotation
						End Site
						{
							OFFSET 0.00000 -0.00000 1.14687
						}
					}
				}
			}
		}
	}
	JOINT RHipJoint
	{
		OFFSET 0 0 0
		CHANNELS 3 Zrotation Yrotation Xrotation
		JOINT RightUpLeg
		{
			OFFSET -1.58469 -1.88989 0.48267
			CHANNELS 3 Zrotation Yrotation Xrotation
			JOINT RightLeg
			{
				OFFSET -2.60386 -7.15404 0.00000
				CHANNELS 3 Zrotation Yrotation Xrotation
				JOINT RightFoot
				{
					OFFSET -2.73334 -7.50979 0.00000
					CHANNELS 3 Zrotation Yrotation Xrotation
					JOINT RightToeBase
					{
						OFFSET -0.25618 -0.70384 2.21822
						CHANNELS 3 Zrotation Yrotation Xrotation
						End Site
						{
							OFFSET -0.00000 -0.00000 1.16381
						}
					}
				}
			}
		}
	}
	JOINT LowerBack
	{
		OFFSET 0 0 0
		CHANNELS 3 Zrotation Yrotation Xrotation
		JOINT Spine
		{
			OFFSET 0.03410 2.01612 -0.22230
			CHANNELS 3 Zrotation Yrotation Xrotation
			JOINT Spine1
			{
				OFFSET 0.03465 2.03012 0.00937
				CHANNELS 3 Zrotation Yrotation Xrotation
				JOINT Neck
				{
					OFFSET 0 0 0
					CHANNELS 3 Zrotation Yrotation Xrotation
					JOINT Neck1
					{
						OFFSET -0.00219 1.70459 0.20857
						CHANNELS 3 Zrotation Yrotation Xrotation
						JOINT Head
						{
							OFFSET 0.02518 1.72339 -0.22179
							CHANNELS 3 Zrotation Yrotation Xrotation
							End Site
							{
								OFFSET 0.00282 1.74122 -0.09823
							}
						}
					}
				}
				JOINT LeftShoulder
				{
					OFFSET 0 0 0
					CHANNELS 3 Zrotation Yrotation Xrotation
					JOINT LeftArm
					{
						OFFSET 3.36358 1.00547 -0.37661
						CHANNELS 3 Zrotation Yrotation Xrotation
						JOINT LeftForeArm
						{
							OFFSET 5.06507 -0.00000 0.00000
							CHANNELS 3 Zrotation Yrotation Xrotation
							JOINT LeftHand
							{
								OFFSET 3.60196 -0.00000 0.00000
								CHANNELS 3 Zrotation Yrotation Xrotation
								JOINT LeftFingerBase
								{
									OFFSET 0 0 0
									CHANNELS 3 Zrotation Yrotation Xrotation
									JOINT LeftHandIndex1
									{
										OFFSET 0.45035 -0.00000 0.00000
										CHANNELS 3 Zrotation Yrotation Xrotation
										End Site
										{
											OFFSET 0.36308 -0.00000 0.00000
										}
									}
								}
								JOINT LThumb
								{
									OFFSET 0 0 0
									CHANNELS 3 Zrotation Yrotation Xrotation
									End Site
									{
										OFFSET 0.36862 -0.00000 0.36862
									}
								}
							}
						}
					}
				}
				JOINT RightShoulder
				{
					OFFSET 0 0 0
					CHANNELS 3 Zrotation Yrotation Xrotation
					JOINT RightArm
					{
						OFFSET -3.50159 0.80383 -0.71526
						CHANNELS 3 Zrotation Yrotation Xrotation
						JOINT RightForeArm
						{
							OFFSET -5.36394 -0.00000 0.00000
							CHANNELS 3 Zrotation Yrotation Xrotation
							JOINT RightHand
							{
								OFFSET -3.58035 -0.00000 0.00000
								CHANNELS 3 Zrotation Yrotation Xrotation
								JOINT RightFingerBase
								{
									OFFSET 0 0 0
									CHANNELS 3 Zrotation Yrotation Xrotation
									JOINT RightHandIndex1
									{
										OFFSET -0.66375 -0.00000 0.00000
										CHANNELS 3 Zrotation Yrotation Xrotation
										End Site
										{
											OFFSET -0.53513 -0.00000 0.00000
										}
									}
								}
								JOINT RThumb
								{
									OFFSET 0 0 0
									CHANNELS 3 Zrotation Yrotation Xrotation
									End Site
									{
										OFFSET -0.54330 -0.00000 0.54330
									}
								}
							}
						}
					}
				}
			}
		}
	}
}
MOTION
Frames: 13
Frame Time: .0083333
-0.7713 18.6728 8.2011 5.7322 1.7108 5.6440 0.0000 0.0000 0.0000 -29.2662 -0.2541 17.1168 4.4724 12.7638 38.4905 1.8079 -8.2893 29.5272 0.6382 -5.1112 -14.2259 0.0000 0.0000 0.0000 13.2572 17.1824 -36.5803 -2.1767 -9.2249 26.5013 0.4029 -12.9429 2.2439 -0.5345 4.6844 -13.0106 -4.1426 -1.9606 13.7981 0.6808 -3.2515 -1.4397 3.7620 -1.3377 -9.0419 -2.1847 -2.4928 -18.0327 2.0905 -3.1713 12.8789 0.6819 -1.4405 6.9582 0.0000 0.0000 0.0000 -83.2476 12.7586 42.1543 145.7211 -44.2903 -105.6925 -0.0000 0.0000 -37.0697 25.8803 -1.2203 -0.5920 -7.1250 0.0000 -0.0000 -0.5376 28.6233 0.2144 0.0000 0.0000 0.0000 88.7273 -40.6785 31.4874 -104.8498 59.1502 -72.8236 0.0000 -0.0000 -17.1968 -24.8962 39.6246 -16.4879 7.1250 -0.0000 -0.0000 5.3345 12.2492 6.3693
-0.7603 18.6529 8.7361 5.4228 1.5278 5.4973 0.0000 0.0000 0.0000 -28.9087 -0.4592 16.0279 5.3227 13.7382 42.1987 1.9329 -7.5660 29.8805 0.2530 -3.2366 -8.9382 0.0000 0.0000 0.0000 13.8319 17.3894 -35.5798 -1.9730 -8.8097 25.2018 0.4323 -13.5562 2.5929 -0.5010 4.5377 -12.5945 -3.7783 -1.8419 13.6175 0.8005 -3.0057 -1.1040 3.6141 -1.2533 -8.6047 -2.2768 -2.5969 -18.2772 2.0865 -3.2745 12.4828 0.6830 -1.4947 6.8736 0.0000 -0.0000 0.0000 -83.6774 12.6424 42.0192 143.9415 -45.5533 -104.4358 -0.0000 0.0000 -36.7972 25.9711 -0.9647 -0.4699 -7.1250 0.0000 -0.0000 -0.4665 28.9066 0.1829 0.0000 -0.0000 0.0000 89.1015 -39.3097 30.7636 -103.9813 59.2483 -72.0776 0.0000 -0.0000 -16.9190 -25.2580 39.5739 -16.7293 7.1250 -0.0000 -0.0000 5.1394 12.2935 6.1377
-0.7404 18.6041 9.2704 5.2163 1.3203 5.2130 0.0000 0.0000 0.0000 -28.6832 -0.5761 14.9479 6.2984 14.7114 46.1678 2.0260 -7.5675 30.4687 0.1864 -2.7804 -7.6678 0.0000 0.0000 0.0000 14.4935 17.2331 -34.5887 -1.8664 -8.5820 24.4962 0.4426 -13.9139 2.9526 -0.5237 4.6379 -12.8785 -3.3873 -1.7622 13.5453 0.8318 -2.8242 -0.8264 3.3780 -1.1959 -8.2935 -2.4263 -2.6199 -18.4054 2.2309 -3.2863 12.3940 0.7517 -1.4938 6.8714 0.0000 -0.0000 0.0000 -84.0716 12.6685 41.6565 141.7900 -46.9729 -102.8810 -0.0000 0.0000 -36.6299 25.6929 -1.3956 -0.6713 -7.1250 0.0000 -0.0000 -0.6837 28.4308 0.2757 0.0000 -0.0000 0.0000 89.3544 -38.0325 30.3173 -102.9041 59.3614 -71.1513 0.0000 -0.0000 -16.7073 -25.2441 39.4599 -16.6813 7.1250 -0.0000 -0.0000 5.1215 12.1761 6.1082
-0.7165 18.5308 9.8146 4.9213 1.0530 4.7615 0.0000 0.0000 0.0000 -28.3151 -0.4698 13.9944 7.4055 15.6640 50.3917 2.0225 -7.7986 30.5858 0.2248 -3.0519 -8.4232 0.0000 0.0000 0.0000 15.4665 16.7626 -33.4577 -1.8369 -8.5177 24.2978 0.4230 -13.7885 3.1742 -0.4094 4.1073 -11.3787 -2.8853 -1.7097 13.5495 0.8383 -2.6688 -0.6260 3.0646 -1.1497 -8.1125 -2.4710 -2.6411 -18.2390 2.3385 -3.3236 12.3040 0.7917 -1.5057 6.8182 -0.0000 0.0000 0.0000 -84.4633 13.1597 41.1037 139.4980 -48.3645 -101.1864 -0.0000 0.0000 -36.5395 25.9290 -0.8824 -0.4290 -7.1250 0.0000 -0.0000 -0.4993 28.9984 0.1946 -0.0000 0.0000 0.0000 89.5037 -37.0574 30.1126 -101.7641 59.4706 -70.1699 0.0000 -0.0000 -16.4388 -25.0074 39.5206 -16.5328 7.1250 -0.0000 -0.0000 5.2553 12.1745 6.2688
-0.6999 18.4547 10.3395 4.2866 0.6114 4.4379 0.0000 0.0000 0.0000 -27.4848 -0.3598 12.5533 8.6383 16.5693 54.8307 2.1381 -7.2123 30.9539 0.1771 -2.7110 -7.4751 0.0000 0.0000 0.0000 16.9321 16.2325 -32.7180 -1.8989 -8.6522 24.7133 0.3074 -12.6855 3.9956 -0.4377 4.2451 -11.7672 -2.2321 -1.5762 13.7484 0.9720 -2.3769 -0.4611 2.7844 -1.0349 -8.0876 -2.3432 -2.7263 -18.2431 2.3029 -3.4605 12.0780 0.7452 -1.5695 6.7458 0.0000 -0.0000 0.0000 -84.8593 13.5129 40.4679 137.0413 -49.7283 -99.3308 -0.0000 0.0000 -36.1894 25.8569 0.6418 0.3110 -7.1250 0.0000 -0.0000 -0.5638 30.6926 0.1970 0.0000 -0.0000 0.0000 89.5423 -35.7867 30.0529 -100.4564 59.5828 -69.0428 0.0000 -0.0000 -16.2457 -25.3821 39.7993 -16.8934 7.1250 -0.0000 -0.0000 5.1262 12.5514 6.1395
-0.6917 18.3641 10.8481 3.3424 -0.0410 4.1652 0.0000 0.0000 0.0000 -26.1182 -0.0585 10.6710 9.9882 17.4032 59.4488 2.3596 -6.3258 31.7990 0.1176 -2.2113 -6.0899 0.0000 0.0000 0.0000 18.8199 15.7342 -32.2247 -2.0460 -8.9612 25.6741 0.1447 -10.8326 5.1018 -0.4789 4.4377 -12.3115 -1.4512 -1.3486 14.2298 1.2648 -1.9272 -0.4507 2.5826 -0.8373 -8.3918 -2.4195 -2.7929 -18.0439 2.3381 -3.5385 11.9414 0.7629 -1.6098 6.6724 -0.0000 -0.0000 0.0000 -85.4254 14.0363 39.8846 134.4531 -51.0336 -97.3368 -0.0000 0.0000 -35.6066 25.5680 -0.0834 -0.0399 -7.1250 0.0000 -0.0000 -0.7854 29.8868 0.2896 -0.0000 -0.0000 0.0000 89.3114 -34.5490 30.2443 -99.2386 59.6750 -67.9921 0.0000 -0.0000 -16.3603 -25.7406 39.7607 -17.1381 7.1250 -0.0000 -0.0000 4.9359 12.6086 5.9136
-0.6797 18.2507 11.3627 2.7194 -0.8951 3.7100 0.0000 0.0000 0.0000 -25.0112 0.6840 8.8841 11.4001 18.1254 64.0741 2.3533 -6.0580 31.6213 0.2427 -3.1701 -8.7526 0.0000 0.0000 0.0000 20.4063 15.0840 -31.7106 -2.3010 -9.4667 27.2665 0.0115 -8.1732 5.4892 -0.0342 1.1930 -3.2799 -0.9444 -1.0482 14.8601 1.4046 -1.4324 -0.4435 2.3606 -0.6110 -8.7766 -2.5019 -2.7967 -17.7713 2.4015 -3.5408 11.9900 0.7992 -1.6113 6.6458 -0.0000 0.0000 0.0000 -85.9605 14.7745 39.2301 131.9051 -52.1976 -95.3393 -0.0000 0.0000 -35.2363 25.9762 -1.6823 -0.8195 -7.1250 0.0000 -0.0000 -0.4652 28.1085 0.1912 -0.0000 0.0000 0.0000 89.1098 -33.2945 30.5796 -97.8468 59.7661 -66.7902 0.0000 -0.0000 -16.6712 -24.7183 40.0001 -16.4834 7.1250 -0.0000 -0.0000 5.5067 12.5769 6.6005
-0.6650 18.1305 11.8845 2.3466 -1.7671 3.2956 0.0000 0.0000 0.0000 -24.1718 1.4494 7.1268 12.8326 18.7209 68.6048 2.1690 -5.9021 30.4214 0.9965 -6.3530 -17.8121 0.0000 0.0000 0.0000 21.6198 14.4685 -31.3845 -2.7222 -10.2312 29.7288 -0.0156 -4.7496 3.8483 -0.3746 -3.9309 10.8825 -0.6315 -0.7518 15.2822 1.4467 -0.9801 -0.3556 2.1373 -0.4048 -8.9455 -2.5055 -2.7806 -17.6181 2.4496 -3.5284 11.9325 0.8186 -1.6027 6.6025 0.0000 0.0000 0.0000 -86.3869 15.3392 38.6240 129.0286 -53.3798 -93.0482 -0.0000 0.0000 -34.5221 26.3745 -2.2793 -1.1297 -7.1250 0.0000 -0.0000 -0.1639 27.4360 0.0700 0.0000 0.0000 0.0000 88.8830 -31.8923 31.0033 -96.6620 59.8316 -65.7662 0.0000 -0.0000 -17.0570 -23.6586 40.6661 -15.9337 7.1250 -0.0000 -0.0000 6.1854 12.9657 7.4537
-0.6571 17.9983 12.4031 1.9855 -2.7377 3.0092 0.0000 0.0000 0.0000 -23.2102 2.2863 5.0928 14.2853 19.1983 73.0739 2.3306 -5.8114 31.3579 0.1112 -2.1505 -5.9218 0.0000 0.0000 0.0000 22.7339 14.2356 -31.1804 -3.3249 -11.2032 32.9684 0.0156 -2.9019 0.9372 -0.3626 -3.8680 10.7056 -0.5053 -0.4132 15.5072 1.5505 -0.4989 -0.2674 2.0713 -0.1768 -8.9963 -2.5050 -2.7791 -17.6917 2.4219 -3.5221 12.0176 0.8091 -1.6011 6.6415 0.0000 0.0000 0.0000 -86.7734 15.9590 38.0376 126.0050 -54.4850 -90.6038 -0.0000 0.0000 -33.8986 26.2723 -2.3775 -1.1731 -7.1250 0.0000 -0.0000 -0.2437 27.3287 0.1046 0.0000 0.0000 0.0000 88.5837 -30.5922 31.5844 -96.0271 59.8623 -65.2172 0.0000 -0.0000 -17.3108 -24.2947 40.8116 -16.4375 7.1250 -0.0000 -0.0000 5.8986 13.2726 7.1283
-0.6488 17.8518 12.9089 1.8200 -3.4168 2.8376 0.0000 0.0000 0.0000 -22.3693 2.7739 2.8528 15.7679 19.5651 77.5395 2.4847 -6.1050 32.4168 0.0815 -1.8412 -5.0669 0.0000 0.0000 0.0000 23.4350 14.3109 -31.0145 -4.0523 -12.2297 36.5493 0.0069 -2.4983 -3.0593 -0.2266 -3.0641 8.4573 -0.4719 -0.1435 15.8107 1.5590 -0.1340 -0.2125 1.9808 -0.0022 -9.1227 -2.4539 -2.8259 -18.2254 2.4645 -3.6013 12.3968 0.7984 -1.6265 6.8552 0.0000 -0.0000 0.0000 -87.0861 16.4972 37.4164 122.9023 -55.4856 -88.0623 -0.0000 0.0000 -33.6306 27.5076 -1.1648 -0.6065 -7.1250 0.0000 -0.0000 0.7288 28.6662 -0.2899 0.0000 -0.0000 0.0000 88.4912 -29.0610 32.1420 -95.4063 59.8893 -64.6803 0.0000 -0.0000 -17.3902 -25.2278 40.7645 -17.1001 7.1250 -0.0000 -0.0000 5.4213 13.4708 6.5607
-0.6312 17.7039 13.4177 1.8601 -4.1314 2.5864 0.0000 0.0000 0.0000 -21.7986 3.3263 0.7154 17.2007 19.8111 81.7906 2.4680 -6.2927 32.4168 0.0640 -1.6324 -4.4908 0.0000 0.0000 0.0000 23.7314 14.8217 -30.5676 -4.8095 -13.1660 39.9931 -0.0867 -1.7729 -6.5119 -0.2322 -3.1017 8.5619 -0.4251 0.1935 16.1432 1.4313 0.3083 -0.0107 1.7130 0.2029 -9.1054 -2.3377 -2.9307 -19.0587 2.4378 -3.7567 12.6846 0.7426 -1.6887 7.0889 -0.0000 -0.0000 0.0000 -87.2942 16.6684 36.9567 119.4616 -56.4517 -85.2105 -0.0000 0.0000 -33.2695 28.5894 0.4074 0.2220 -7.1250 0.0000 -0.0000 1.6028 30.4417 -0.5700 -0.0000 -0.0000 0.0000 88.5537 -27.0189 32.5622 -94.6690 59.9175 -64.0424 0.0000 -0.0000 -17.5527 -25.6164 40.2621 -17.2169 7.1250 -0.0000 -0.0000 5.1119 13.0752 6.1574
-0.6198 17.5686 13.9286 1.5484 -4.8553 2.3485 0.0000 0.0000 0.0000 -20.7338 3.9342 -1.4124 18.5986 19.9528 85.8995 2.2172 -6.4016 30.9846 0.0400 -1.2916 -3.5515 0.0000 0.0000 0.0000 24.3250 15.7265 -29.8158 -5.5296 -13.9564 43.0631 -0.2215 -1.7030 -9.6831 -0.2538 -3.2417 8.9523 -0.0867 0.4816 16.3203 1.4286 0.7501 0.2641 1.4117 0.3970 -8.9150 -2.1818 -2.9444 -19.6363 2.3566 -3.7901 12.6516 0.6807 -1.6995 7.1699 0.0000 0.0000 0.0000 -87.3609 16.7364 36.5331 115.6947 -57.3521 -82.0545 -0.0000 0.0000 -33.1097 27.3618 -0.8576 -0.4438 -7.1250 0.0000 -0.0000 0.6196 29.0139 -0.2413 0.0000 0.0000 0.0000 88.4950 -24.7440 33.1306 -93.8497 59.9439 -63.3333 0.0000 -0.0000 -17.7006 -25.8566 38.9246 -16.9353 7.1250 -0.0000 -0.0000 4.6910 11.8029 5.5679
-0.6317 17.4757 14.4220 1.1057 -5.1514 2.2910 0.0000 0.0000 0.0000 -19.3182 3.8897 -3.9447 19.9718 20.0000 89.9175 2.0533 -6.8468 30.2194 0.0251 -1.0238 -2.8142 0.0000 0.0000 0.0000 25.1666 16.5009 -28.8272 -6.1091 -14.5332 45.4179 -0.3250 -3.2167 -12.4409 -0.3135 -3.5992 9.9516 0.1360 0.6755 16.6301 1.5916 1.0625 0.4851 1.3850 0.5397 -8.8555 -2.2228 -2.9965 -20.3307 2.3409 -3.8310 12.6288 0.6694 -1.7166 7.2785 -0.0000 -0.0000 0.0000 -87.5750 16.6208 36.0011 111.4998 -58.1793 -78.5056 -0.0000 0.0000 -33.2992 26.8573 -2.0443 -1.0349 -7.1250 0.0000 -0.0000 0.2111 27.6884 -0.0888 -0.0000 -0.0000 0.0000 88.2664 -22.3475 33.8649 -93.0365 59.9651 -62.6293 0.0000 -0.0000 -17.4912 -26.6519 37.7836 -17.0928 7.1250 -0.0000 -0.0000 4.0307 10.8684 4.7290
